<svg xmlns="http://www.w3.org/2000/svg" viewBox="0 0 900 1200" role="img" aria-labelledby="title desc">
  <title id="title">Sac cuir italien bleu marine</title>
  <desc id="desc">Visuel produit seul d'un sac bandouliere bleu marine style luxe italien.</desc>
  <defs>
    <linearGradient id="bg" x1="0" y1="0" x2="1" y2="1">
      <stop offset="0" stop-color="#070707"/>
      <stop offset="0.5" stop-color="#e9e3d7"/>
      <stop offset="1" stop-color="#101624"/>
    </linearGradient>
    <linearGradient id="bag" x1="0" y1="0" x2="1" y2="1">
      <stop offset="0" stop-color="#344663"/>
      <stop offset="0.52" stop-color="#13213a"/>
      <stop offset="1" stop-color="#07101f"/>
    </linearGradient>
    <linearGradient id="metal" x1="0" y1="0" x2="1" y2="1">
      <stop offset="0" stop-color="#fff5d2"/>
      <stop offset="0.5" stop-color="#c7a85e"/>
      <stop offset="1" stop-color="#58411a"/>
    </linearGradient>
    <filter id="shadow" x="-30%" y="-30%" width="160%" height="160%">
      <feDropShadow dx="0" dy="38" stdDeviation="38" flood-color="#000" flood-opacity=".5"/>
    </filter>
  </defs>
  <rect width="900" height="1200" fill="url(#bg)"/>
  <rect x="92" y="92" width="716" height="1016" fill="none" stroke="#d8b66a" stroke-opacity=".3"/>
  <g filter="url(#shadow)">
    <path d="M310 336c0-90 66-154 140-154s140 64 140 154" fill="none" stroke="#0c1322" stroke-width="32" stroke-linecap="round"/>
    <rect x="224" y="315" width="452" height="620" rx="36" fill="url(#bag)"/>
    <path d="M224 416h452v112c-124 40-322 40-452 0z" fill="#020711" opacity=".46"/>
    <rect x="292" y="360" width="316" height="116" fill="#182843" opacity=".9"/>
    <rect x="368" y="394" width="164" height="70" rx="13" fill="url(#metal)"/>
    <rect x="417" y="415" width="66" height="24" rx="4" fill="#342812" opacity=".72"/>
    <path d="M285 577h330" stroke="#9ab0d4" stroke-opacity=".22" stroke-width="4"/>
    <path d="M285 649h330" stroke="#000" stroke-opacity=".25" stroke-width="3"/>
    <path d="M285 722h330" stroke="#d8b66a" stroke-opacity=".18" stroke-width="3"/>
  </g>
  <text x="450" y="1035" text-anchor="middle" fill="#d8b66a" font-family="Georgia, serif" font-size="44" font-style="italic">Italian Luxury</text>
</svg>
