<svg xmlns="http://www.w3.org/2000/svg" xmlns:xlink="http://www.w3.org/1999/xlink" width="500" zoomAndPan="magnify" viewBox="0 0 375 374.999991" height="500" preserveAspectRatio="xMidYMid meet" version="1.0"><defs><g/></defs><g fill="#000000" fill-opacity="1"><g transform="translate(26.311987, 245.775187)"><g><path d="M 18.890625 -5.890625 L 15.375 0 L 8.90625 0 L 7.6875 -39.65625 L 14.234375 -39.65625 C 20.878906 -16.320312 32.597656 -4.65625 49.390625 -4.65625 C 64.003906 -4.65625 71.3125 -11.472656 71.3125 -25.109375 C 71.3125 -29.191406 70.328125 -32.921875 68.359375 -36.296875 C 66.398438 -39.679688 64.070312 -42.273438 61.375 -44.078125 C 58.675781 -45.878906 54.628906 -47.785156 49.234375 -49.796875 C 38.492188 -53.722656 30.832031 -56.976562 26.25 -59.5625 C 21.664062 -62.15625 17.957031 -65.769531 15.125 -70.40625 C 12.289062 -75.039062 10.875 -80.601562 10.875 -87.09375 C 10.875 -95.875 14.320312 -103.316406 21.21875 -109.421875 C 28.113281 -115.523438 36.390625 -118.578125 46.046875 -118.578125 C 54.546875 -118.578125 63.210938 -115.90625 72.046875 -110.5625 L 75.40625 -116.046875 L 81.859375 -116.046875 L 82.59375 -77.53125 L 75.890625 -77.53125 C 72.347656 -90.664062 68.148438 -99.617188 63.296875 -104.390625 C 58.441406 -109.160156 52.363281 -111.546875 45.0625 -111.546875 C 39.769531 -111.546875 35.320312 -109.867188 31.71875 -106.515625 C 28.125 -103.160156 26.328125 -99.085938 26.328125 -94.296875 C 26.328125 -88.617188 27.867188 -83.925781 30.953125 -80.21875 C 34.035156 -76.519531 40.945312 -72.734375 51.6875 -68.859375 C 65.476562 -63.835938 74.878906 -58.75 79.890625 -53.59375 C 84.910156 -48.445312 87.421875 -41.566406 87.421875 -32.953125 C 87.421875 -22.648438 83.644531 -14.1875 76.09375 -7.5625 C 68.539062 -0.9375 59.148438 2.375 47.921875 2.375 C 37.835938 2.375 28.160156 -0.378906 18.890625 -5.890625 Z M 18.890625 -5.890625 "/></g></g></g><g fill="#000000" fill-opacity="1"><g transform="translate(120.273544, 245.775187)"><g><path d="M 118.90625 -67.625 C 112.632812 -67.082031 108.09375 -65.925781 105.28125 -64.15625 C 102.476562 -62.382812 100.097656 -59.34375 98.140625 -55.03125 C 90.773438 -39.164062 85.539062 -29.351562 82.4375 -25.59375 C 88.863281 -18.289062 94.117188 -13.316406 98.203125 -10.671875 C 102.296875 -8.023438 108.816406 -6.429688 117.765625 -5.890625 L 117.765625 0 L 83.90625 0 L 71.890625 -13.90625 C 61.578125 -2.726562 50.832031 2.859375 39.65625 2.859375 C 30.0625 2.859375 22.085938 0.09375 15.734375 -5.4375 C 9.390625 -10.96875 6.21875 -18.53125 6.21875 -28.125 C 6.21875 -35.382812 8.148438 -41.722656 12.015625 -47.140625 C 15.890625 -52.566406 22.378906 -58.171875 31.484375 -63.953125 C 24.890625 -72.671875 20.894531 -78.75 19.5 -82.1875 C 18.113281 -85.625 17.421875 -89.382812 17.421875 -93.46875 C 17.421875 -100.832031 20.1875 -106.882812 25.71875 -111.625 C 31.25 -116.375 38.078125 -118.75 46.203125 -118.75 C 54.160156 -118.75 60.398438 -116.523438 64.921875 -112.078125 C 69.453125 -107.628906 71.71875 -102.273438 71.71875 -96.015625 C 71.71875 -84.285156 64.054688 -74.390625 48.734375 -66.328125 C 54.023438 -59.234375 61.195312 -50.398438 70.25 -39.828125 C 72.644531 -36.992188 75.179688 -33.941406 77.859375 -30.671875 C 85.597656 -42.773438 89.46875 -52.75 89.46875 -60.59375 C 89.46875 -63.488281 84.722656 -65.832031 75.234375 -67.625 L 75.234375 -73.515625 L 118.90625 -73.515625 Z M 45.21875 -71.140625 C 55.851562 -77.035156 61.171875 -84.753906 61.171875 -94.296875 C 61.171875 -105.796875 56.398438 -111.546875 46.859375 -111.546875 C 42.660156 -111.546875 39.332031 -109.9375 36.875 -106.71875 C 34.425781 -103.5 33.203125 -100.09375 33.203125 -96.5 C 33.203125 -90.125 37.207031 -81.671875 45.21875 -71.140625 Z M 67.46875 -18.5625 C 64.46875 -22.4375 58.796875 -29.46875 50.453125 -39.65625 C 43.035156 -48.707031 37.882812 -55.253906 35 -59.296875 C 26.988281 -53.734375 22.984375 -45.414062 22.984375 -34.34375 C 22.984375 -26.820312 25.109375 -20.632812 29.359375 -15.78125 C 33.609375 -10.925781 39.222656 -8.5 46.203125 -8.5 C 55.203125 -8.5 62.289062 -11.851562 67.46875 -18.5625 Z M 67.46875 -18.5625 "/></g></g></g><g fill="#000000" fill-opacity="1"><g transform="translate(239.177029, 245.775187)"><g><path d="M 7.6875 0 L 7.6875 -5.890625 C 14.226562 -6.378906 18.519531 -7.304688 20.5625 -8.671875 C 22.613281 -10.035156 23.640625 -12.40625 23.640625 -15.78125 L 23.640625 -99.109375 C 23.640625 -105.710938 18.539062 -109.421875 8.34375 -110.234375 L 8.34375 -116.046875 L 61.984375 -116.046875 C 71.691406 -116.046875 79.71875 -113.847656 86.0625 -109.453125 C 92.414062 -105.066406 95.59375 -98.84375 95.59375 -90.78125 C 95.59375 -76.332031 86.460938 -66.953125 68.203125 -62.640625 L 68.203125 -61.984375 C 90.722656 -58.609375 101.984375 -48.441406 101.984375 -31.484375 C 101.984375 -21.992188 98.175781 -14.375 90.5625 -8.625 C 82.957031 -2.875 73.707031 0 62.8125 0 Z M 41.046875 -109.171875 L 41.046875 -64.6875 L 51.4375 -64.6875 C 67.851562 -64.6875 76.0625 -72.835938 76.0625 -89.140625 C 76.0625 -102.710938 68.804688 -109.5 54.296875 -109.5 C 49.390625 -109.5 44.972656 -109.390625 41.046875 -109.171875 Z M 41.046875 -57.8125 L 41.046875 -16.921875 C 41.046875 -10.003906 46.28125 -6.546875 56.75 -6.546875 C 73.488281 -6.546875 81.859375 -15.867188 81.859375 -34.515625 C 81.859375 -41.710938 79.484375 -47.445312 74.734375 -51.71875 C 69.992188 -56 63.507812 -58.140625 55.28125 -58.140625 C 48.90625 -58.140625 44.160156 -58.03125 41.046875 -57.8125 Z M 41.046875 -57.8125 "/></g></g></g></svg>